<svg width="19" height="19" viewBox="0 0 19 19" fill="none" xmlns="http://www.w3.org/2000/svg">
<path fill-rule="evenodd" clip-rule="evenodd" d="M16.2316 2.76152C15.3553 1.88355 14.3125 1.18745 13.1639 0.713353C12.0152 0.239357 10.7835 -0.00311615 9.54007 3.02326e-05C4.3258 3.02326e-05 0.0811466 4.22358 0.0790348 9.41511C0.0790348 11.0743 0.514257 12.6936 1.34144 14.1221L0 19L5.01498 17.6901C6.4022 18.4416 7.95634 18.8356 9.53577 18.8364H9.54007C14.7532 18.8364 18.9978 14.6129 19 9.42141C19.0035 8.18425 18.7607 6.9588 18.2856 5.81565C17.8104 4.67251 17.1124 3.63445 16.2316 2.76152ZM9.54007 17.2475H9.53691C8.12844 17.2476 6.74603 16.8705 5.53458 16.1557L5.24791 15.9858L2.27203 16.7629L3.06554 13.8755L2.87902 13.5798C2.09158 12.3322 1.67478 10.8884 1.67655 9.41511C1.6787 5.10029 5.2058 1.59006 9.54323 1.59006C10.5761 1.58767 11.5994 1.78942 12.5535 2.18322C13.5077 2.57714 14.3738 3.15545 15.102 3.88478C15.834 4.61059 16.4142 5.47358 16.809 6.42391C17.2039 7.37424 17.4055 8.39304 17.4024 9.42141C17.4003 13.7361 13.8732 17.2475 9.54007 17.2475ZM13.8532 11.3858C13.6161 11.2672 12.4549 10.6988 12.2377 10.6202C12.0218 10.5415 11.8647 10.5026 11.7066 10.7376C11.5486 10.9726 11.0955 11.5022 10.9574 11.6595C10.8193 11.8168 10.6813 11.8357 10.4452 11.7183C10.2091 11.6007 9.44725 11.3522 8.54423 10.551C7.84126 9.92684 7.36705 9.15711 7.22909 8.92113C7.091 8.68515 7.21429 8.55816 7.33342 8.44074C7.43977 8.3359 7.56938 8.166 7.68749 8.02856C7.80547 7.89113 7.84442 7.79359 7.92346 7.63627C8.00249 7.47895 7.96354 7.34165 7.90348 7.2241C7.84442 7.10567 7.37135 5.9478 7.17421 5.47685C6.98351 5.02062 6.78852 5.08141 6.64309 5.07512C6.49249 5.06908 6.34175 5.06618 6.19102 5.06681C6.07114 5.06983 5.95328 5.09739 5.84465 5.14799C5.73603 5.19846 5.63904 5.27082 5.55988 5.36043C5.34275 5.59641 4.7326 6.1649 4.7326 7.32277C4.7326 8.48064 5.57986 9.59962 5.69784 9.75694C5.81595 9.91426 7.36503 12.2898 9.73607 13.3092C10.3008 13.5515 10.7414 13.6962 11.0838 13.8053C11.6497 13.9847 12.165 13.9585 12.5729 13.8987C13.0271 13.8315 13.9712 13.3302 14.1683 12.7806C14.3654 12.2311 14.3654 11.7602 14.3063 11.6616C14.2474 11.563 14.0882 11.5032 13.8532 11.3858Z" fill="white"/>
</svg>
